# xmcd
#
# Track frame offsets:
#	150
#	3072
#	48401
#	91561
#	110783
#	145299
#	169826
#
# Disc length: 2665 seconds
#
# Revision: 1
# Processed by: cddbd v1.5.2PL0 Copyright (c) Steve Scherf et al.
# Submitted via: audiograbber 1.83.01
#
DISCID=4f0a6707
DTITLE=Johnny Winter - Live Bootleg Series Vol. 9
DYEAR=2013
DGENRE=Blues
TTITLE0=Introduction
TTITLE1=Hideaway
TTITLE2=Mean Town Blues
TTITLE3=44 Blues
TTITLE4=You Done Lost Your Good Thing Now
TTITLE5=It's My Life Baby
TTITLE6=Manic Depression
EXTD=
EXTT0=
EXTT1=
EXTT2=
EXTT3=
EXTT4=
EXTT5=
EXTT6=
PLAYORDER=
